# AST/ASF file generated using VICON BodyLanguage
# -----------------------------------------------
:version 1.10
:name VICON
:units
  mass 1.0
  length 0.45
  angle deg
:documentation
   .ast/.asf automatically generated from VICON data using
   VICON BodyBuilder and BodyLanguage model FoxedUp or BRILLIANT.MOD
:root
   order TX TY TZ RX RY RZ
   axis XYZ
   position 0 0 0  
   orientation 0 0 0 
:bonedata
  begin
     id 1 
     name lhipjoint
     direction 0.630082 -0.636569 0.44472 
     length 2.82754 
     axis 0 0 0  XYZ
  end
  begin
     id 2 
     name lfemur
     direction 0.34202 -0.939693 0  
     length 7.26371  
     axis 0 0 20  XYZ
    dof rx ry rz
    limits (-160.0 20.0)
           (-70.0 70.0)
           (-60.0 70.0)
  end
  begin
     id 3 
     name ltibia
     direction 0.34202 -0.939693 0   
     length 7.88616   
     axis 0 0 20   XYZ
    dof rx
    limits (-10.0 170.0)
  end
  begin
     id 4 
     name lfoot
     direction 0.0603448 -0.165796 0.984312   
     length 1.77861   
     axis -90 7.62852e-016 20   XYZ
    dof rx rz
    limits (-45.0 90.0)
           (-70.0 20.0)
  end
  begin
     id 5 
     name ltoes
     direction 1.53577e-011 -4.21876e-011 1   
     length 0.902235   
     axis -90 7.62852e-016 20   XYZ
    dof rx
    limits (-90.0 20.0)
  end
  begin
     id 6 
     name rhipjoint
     direction -0.656778 -0.61817 0.431866   
     length 2.9117  
     axis 0 0 0  XYZ 
  end
  begin
     id 7 
     name rfemur
     direction -0.34202 -0.939693 0   
     length 6.81603   
     axis 0 0 -20   XYZ
    dof rx ry rz
    limits (-160.0 20.0)
           (-70.0 70.0)
           (-70.0 60.0)
  end
  begin
     id 8 
     name rtibia
     direction -0.34202 -0.939693 0   
     length 8.05997   
     axis 0 0 -20   XYZ
    dof rx
    limits (-10.0 170.0)
 end
 begin
     id 9 
     name rfoot
     direction -0.0862404 -0.236944 0.967688   
     length 1.84899  
     axis -90 -7.62852e-016 -20   XYZ
    dof rx rz
    limits (-45.0 90.0)
           (-20.0 70.0)
  end
  begin
     id 10 
     name rtoes
     direction -1.53561e-011 -4.21798e-011 1   
     length 0.931579   
     axis -90 -7.62852e-016 -20   XYZ
    dof rx
    limits (-90.0 20.0)
  end
  begin
     id 11 
     name lowerback
     direction -0.0110203 0.991769 -0.127564   
     length 2.05686   
     axis 0 0 0   XYZ
    dof rx ry rz
    limits (-20.0 45.0)
           (-30.0 30.0)
           (-30.0 30.0)
  end
  begin
     id 12 
     name upperback
     direction 0.0109719 0.99993 -0.00432479   
     length 2.06234   
     axis 0 0 0   XYZ
    dof rx ry rz
    limits (-20.0 45.0)
           (-30.0 30.0)
           (-30.0 30.0)
  end
  begin
     id 13 
     name thorax
     direction 0.0173308 0.998351 0.0547306   
     length 2.09856   
     axis 0 0 0   XYZ
    dof rx ry rz
    limits (-20.0 45.0)
           (-30.0 30.0)
           (-30.0 30.0)
  end
  begin
     id 14 
     name lowerneck
     direction -0.0311736 0.989033 0.144366   
     length 1.98151   
     axis 0 0 0   XYZ
    dof rx ry rz
    limits (-20.0 45.0)
           (-30.0 30.0)
           (-30.0 30.0)
  end
  begin
     id 15 
     name upperneck
     direction 0.0421057 0.975772 -0.214698   
     length 2.01457   
     axis 0 0 0   XYZ
    dof rx ry rz
    limits (-20.0 45.0)
           (-30.0 30.0)
           (-30.0 30.0)
  end
  begin
     id 16
     name head
     direction 0.0136911 0.995958 -0.0887718  
     length 2.03562  
     axis 0 0 0   XYZ
    dof rx ry rz
    limits (-20.0 45.0)
           (-30.0 30.0)
           (-30.0 30.0)
  end
  begin
     id 17 
     name lclavicle
     direction 0.915335 0.396201 0.0720134  
     length 4.16217  
     axis 0 0 0   XYZ
    dof ry rz
    limits (-20.0 10.0)
           (0.0 20.0)
  end
  begin
     id 18 
     name lhumerus
     direction 1 -4.48965e-011 6.383e-018   
     length 4.93042   
     axis -180 -30 -90   XYZ
    dof rx ry rz
    limits (-60.0 90.0)
           (-90.0 90.0)
           (-90.0 90.0)
  end
  begin
     id 19
     name lradius
     direction 1 -4.48972e-011 8.8689e-027   
     length 3.68177   
     axis -180 -30 -90   XYZ
    dof rx
    limits (-10.0 170.0)
  end
  begin
     id 20
     name lwrist
     direction 1 -4.48953e-011 1.17971e-026   
     length 1.84089   
     axis -7.69454e-015 90 90   XYZ
    dof ry
    limits (-180.0 0.0)
 end
  begin
     id 21 
     name lhand
     direction 1 -4.49027e-011 2.35802e-026   
     length 0.721479   
     axis -1.50533e-014 90 90   XYZ
    dof rx rz
    limits (-90.0 90.0)
           (-45.0 45.0)
  end
  begin
     id 22 
     name lfingers
     direction 1 -4.48915e-011 4.72027e-026   
     length 0.581675   
     axis -3.01059e-014 90 90   XYZ
    dof rx
    limits (0.0 90.0)
  end
  begin
     id 23
     name lthumb
     direction 0.707107 -6.34948e-011 0.707107   
     length 0.835172   
     axis -90 45 -5.12164e-014   XYZ
    dof rx rz
    limits (-45.0 45.0)
           (-45.0 45.0)
  end
  begin
     id 24 
     name rclavicle
     direction -0.882781 0.469197 0.0234974   
     length 3.95647  
     axis 0 0 0   XYZ 
    dof ry rz
    limits (-10.0 20.0)
           (-20.0 0.0)
  end
  begin
     id 25 
     name rhumerus
     direction -1 -4.48965e-011 -1.54906e-018  
     length 5.07905   
     axis -180 30 90   XYZ
    dof rx ry rz
    limits (-90.0 60.0)
           (-90.0 90.0)
           (-90.0 90.0)
  end
  begin
     id 26 
     name rradius
     direction -1 -4.48972e-011 5.47489e-027   
     length 3.54394   
     axis -180 30 90   XYZ
    dof rx
    limits (-10.0 170.0)
  end
  begin
     id 27 
     name rwrist
     direction -1 -4.48955e-011 1.17969e-026   
     length 1.77197   
     axis -7.69454e-015 -90 -90   XYZ
    dof ry
    limits (-180.0 0.0)
  end
  begin
     id 28
     name rhand
     direction -1 -4.48982e-011 2.35888e-026   
     length 0.681156   
     axis -1.50533e-014 -90 -90   XYZ
    dof rx rz
    limits (-90.0 90.0)
           (-45.0 45.0)
  end
  begin
     id 29
     name rfingers
     direction -1 -4.48955e-011 4.71877e-026   
     length 0.549165   
     axis -3.01059e-014 -90 -90   XYZ
    dof rx
    limits (0.0 90.0)
  end
  begin
     id 30
     name rthumb
     direction -0.707107 -6.3491e-011 0.707107   
     length 0.788495   
     axis -90 -45 5.12164e-014   XYZ
    dof rx rz
    limits (-45.0 45.0)
           (-45.0 45.0)
  end
:hierarchy
  begin
    root lhipjoint rhipjoint lowerback
    lhipjoint lfemur
    lfemur ltibia
    ltibia lfoot
    lfoot ltoes
    rhipjoint rfemur
    rfemur rtibia
    rtibia rfoot
    rfoot rtoes
    lowerback upperback
    upperback thorax
    thorax lowerneck lclavicle rclavicle
    lowerneck upperneck
    upperneck head
    lclavicle lhumerus
    lhumerus lradius
    lradius lwrist
    lwrist lhand lthumb
    lhand lfingers
    rclavicle rhumerus
    rhumerus rradius
    rradius rwrist
    rwrist rhand rthumb
    rhand rfingers
  end

#!OML:ASF H:\Bending\Project 1\Capture day 1\Session 1\Subject.ASF
:FULLY-SPECIFIED
:DEGREES
369
root -9.19322 18.0287 -16.2339 216.173 87.0242 209.869
lowerback 4.9681 -0.382101 0.891458
upperback -3.03515 -0.292335 2.13722
thorax -5.93808 -0.118749 1.75196
lowerneck -24.4815 -3.88851 -6.28727
upperneck 30.4985 -3.72313 3.00222
head 14.8966 -1.73946 1.61724
rclavicle -8.22472e-015 2.14687e-014
rhumerus -43.8883 4.81637 -80.1495
rradius 36.0492
rwrist 22.2925
rhand -14.4189 -11.7831
rfingers 7.12502
rthumb 11.7252 -41.435
lclavicle -8.22472e-015 2.14687e-014
lhumerus -40.2634 -3.33456 92.4794
lradius 35.0654
lwrist 21.714
lhand -32.6499 5.91274
lfingers 7.12502
lthumb -5.87617 35.8113
rfemur 4.44859 -3.17947 16.1658
rtibia 1.11319e-014
rfoot -11.2966 -18.0742
rtoes 11.8077
lfemur -8.81837 -18.4959 -10.3706
ltibia 20.514
lfoot -22.3487 11.9924
ltoes -5.58515
370
root -9.20287 18.0281 -16.2315 217.208 87.0415 210.939
lowerback 5.00406 -0.391589 0.898391
upperback -3.04444 -0.303022 2.14319
thorax -5.96829 -0.124037 1.75591
lowerneck -24.474 -3.84539 -6.21023
upperneck 30.5629 -3.6778 2.9657
head 14.9183 -1.71566 1.59926
rclavicle 5.34234e-015 7.95139e-015
rhumerus -43.9183 4.47823 -79.9333
rradius 35.3543
rwrist 22.4142
rhand -14.6102 -11.7718
rfingers 7.12502
rthumb 11.5407 -41.4341
lclavicle 5.34234e-015 7.95139e-015
lhumerus -40.1203 -2.78242 92.0246
lradius 34.1298
lwrist 21.2183
lhand -32.4375 5.813
lfingers 7.12502
lthumb -5.67113 35.7171
rfemur 4.44299 -3.12909 16.2135
rtibia -1.27222e-014
rfoot -11.2863 -18.0678
rtoes 11.9351
lfemur -8.80713 -18.468 -10.3325
ltibia 20.5251
lfoot -22.2921 12.0769
ltoes -6.13899
371
root -9.21271 18.0272 -16.2284 218.252 87.0504 212.02
lowerback 5.04266 -0.395587 0.903559
upperback -3.05345 -0.306758 2.14474
thorax -5.99989 -0.125947 1.75559
lowerneck -24.4596 -3.81721 -6.15767
upperneck 30.6093 -3.65621 2.96053
head 14.9333 -1.70036 1.59351
rclavicle 1.963e-015 1.59028e-015
rhumerus -43.9512 4.12962 -79.7086
rradius 34.681
rwrist 22.5572
rhand -14.6946 -11.7135
rfingers 7.12502
rthumb 11.4593 -41.3803
lclavicle 1.963e-015 1.59028e-015
lhumerus -40.0061 -2.40004 91.6284
lradius 33.2469
lwrist 20.8857
lhand -32.2155 5.75802
lfingers 7.12502
lthumb -5.45678 35.6678
rfemur 4.44044 -3.08422 16.2711
rtibia 2.8625e-014
rfoot -11.2765 -18.0673
rtoes 11.9998
lfemur -8.79426 -18.4378 -10.2829
ltibia 20.5307
lfoot -22.2361 12.1461
ltoes -6.70643
372
root -9.22202 18.0263 -16.225 219.04 87.0461 212.843
lowerback 5.07642 -0.38999 0.919115
upperback -3.05902 -0.297828 2.13498
thorax -6.02547 -0.122369 1.73623
lowerneck -24.4475 -3.81238 -6.12831
upperneck 30.6375 -3.66712 2.97626
head 14.9436 -1.69865 1.59356
rclavicle -2.48481e-017 1.23246e-014
rhumerus -43.9846 3.7595 -79.4793
rradius 34.0515
rwrist 22.7181
rhand -14.6629 -11.6623
rfingers 7.12502
rthumb 11.4899 -41.3274
lclavicle -2.48481e-017 1.23246e-014
lhumerus -39.9195 -2.19016 91.3035
lradius 32.4339
lwrist 20.7067
lhand -32.0537 5.76306
lfingers 7.12502
lthumb -5.30056 35.6768
rfemur 4.44184 -3.05729 16.3273
rtibia -2.70347e-014
rfoot -11.2572 -18.0763
rtoes 11.953
lfemur -8.78027 -18.4463 -10.232
ltibia 20.5313
lfoot -22.2084 12.2039
ltoes -7.12771
373
root -9.23043 18.0258 -16.2219 219.35 87.0295 213.186
lowerback 5.09881 -0.376181 0.947073
upperback -3.06087 -0.278203 2.11194
thorax -6.04094 -0.114425 1.69477
lowerneck -24.4422 -3.82767 -6.10843
upperneck 30.6495 -3.70328 2.99057
head 14.9499 -1.70916 1.58918
rclavicle -6.48535e-015 -4.37326e-015
rhumerus -44.012 3.36554 -79.2476
rradius 33.4716
rwrist 22.892
rhand -14.5499 -11.647
rfingers 7.12502
rthumb 11.5988 -41.306
lclavicle -6.48535e-015 -4.37326e-015
lhumerus -39.8491 -2.07392 91.0262
lradius 31.6863
lwrist 20.6107
lhand -31.9932 5.81729
lfingers 7.12502
lthumb -5.24216 35.7324
rfemur 4.44433 -3.05559 16.3688
rtibia -3.18055e-015
rfoot -11.2256 -18.0925
rtoes 11.8101
lfemur -8.76991 -18.5061 -10.1913
ltibia 20.5275
lfoot -22.2187 12.246
ltoes -7.30525
374
root -9.23805 18.0259 -16.2194 219.18 87.0072 213.04
lowerback 5.10743 -0.360628 0.978521
upperback -3.06207 -0.256795 2.08138
thorax -6.04784 -0.10597 1.64314
lowerneck -24.4405 -3.84911 -6.08126
upperneck 30.6501 -3.743 2.98077
head 14.9511 -1.72404 1.57252
rclavicle -5.28022e-015 2.66371e-014
rhumerus -44.0258 2.96017 -79.0127
rradius 32.9339
rwrist 23.0792
rhand -14.4149 -11.6613
rfingers 7.12502
rthumb 11.729 -41.3129
lclavicle -5.28022e-015 2.66371e-014
lhumerus -39.7848 -1.93181 90.7517
lradius 30.9903
lwrist 20.5102
lhand -32.0324 5.89229
lfingers 7.12502
lthumb -5.28 35.8065
rfemur 4.44236 -3.07506 16.3876
rtibia -4.77083e-015
rfoot -11.1865 -18.1088
rtoes 11.6398
lfemur -8.7684 -18.6005 -10.1672
ltibia 20.5199
lfoot -22.2586 12.2664
ltoes -7.23473
